<svg xmlns="http://www.w3.org/2000/svg" version="1.1" xmlns:xlink="http://www.w3.org/1999/xlink" xmlns:svgjs="http://svgjs.dev/svgjs" viewBox="0 0 26.31700645119447 5.556759099985579"><g transform="matrix(0.6765886453439547,0,0,0.6765886453439547,8.205735570195243,2.310581931922946)"><rect width="28.973153580459474" height="28.973153580459474" x="-7.1663716855694695" y="-13.795170540229737" fill="#ffffff"></rect><g transform="matrix(1,0,0,1,0,0)" clip-path="url(#SvgjsClipPath2316)"><g clip-path="url(#SvgjsClipPath23119bf60ac6-50f1-473c-ba55-478abc4d1be2)"><path d=" M -0.40369844191541837 0.5881944250729081 C -0.4611323735851949 -0.20957689409630964 -1.155942864029325 -0.8119327628281158 -1.9537141831985427 -0.7551992449591899 C -2.413185636556758 -0.7222797963191958 -2.8341343308681712 -0.46943041421200743 -3.0799795749668504 -0.07859951333718418 C -3.112899023606844 -0.025368064472513163 -3.0988907475898255 0.04397290181172975 -3.0470601263268566 0.07899359185427679 L -2.668136260066499 0.33744628436827284 C -2.6415205356341636 0.3556570431903969 -2.6086010869941694 0.3619607673980556 -2.577782879756729 0.3549566293895463 C -2.5462642587184363 0.347952491381037 -2.519648534286101 0.3283409049572106 -2.5028386030656784 0.30102476672402423 C -2.3753632913108076 0.08669814366363726 -2.1505304612376563 -0.05198378890484845 -1.9011831481347228 -0.07019454772697287 C -1.481635281425011 -0.10031234116356325 -1.116019277380821 0.21697511062191155 -1.0859014839442311 0.636522977331623 C -1.071192794126361 0.8396429795783951 -1.137031691406349 1.0364592576175085 -1.2701103135680278 1.1905502938047146 C -1.4031889357297058 1.3446413299919207 -1.5887985929552042 1.4370959517042445 -1.791918595201976 1.4518046415221142 C -2.0937969433687305 1.4735174693484936 -2.3802661879167637 1.3145235365553303 -2.521049361887802 1.0462650508294216 C -2.5497663277226907 0.9916327743630482 -2.617006052604381 0.9692195327358184 -2.6730391566724556 0.9951348433673031 L -3.0890849543779124 1.188449052402162 C -3.117801920212801 1.2017569146183298 -3.13951474803918 1.2262713976481125 -3.150020955051944 1.255688777283852 C -3.160527162064708 1.285806570720443 -3.1584259206621548 1.3180256055595851 -3.1437172308442856 1.3460421575936228 C -2.8957707453430537 1.8384330595918317 -2.3956752915354844 2.1417122353602878 -1.8521541820751573 2.1417122353602878 C -1.817833905833461 2.1417122353602878 -1.782813215790914 2.140311407758586 -1.747792525748367 2.1382101663560333 C -1.3611641076786496 2.1108940281228468 -1.008855965850628 1.93438975030841 -0.7553061699425889 1.641616781552718 C -0.5010559602336979 1.3488438127970266 -0.3763823036822309 0.974822843142626 -0.40369844191541837 0.5881944250729081 Z M -0.9304096201553227 1.4889265729672139 C -1.1433354156140076 1.734771817065893 -1.4396104533739549 1.882559129045441 -1.7639020431679389 1.9063731982743732 C -2.2142681171150915 1.9385922331135164 -2.6387188804307593 1.7214639548497255 -2.8775599865209296 1.3467425713944738 L -2.6702375014690514 1.250085466877045 C -2.4853282580444045 1.5218460216072085 -2.177146185669992 1.6857428510063275 -1.8472512854691998 1.6857428510063275 C -1.823437216240268 1.6857428510063275 -1.7996231470113364 1.6850424372054764 -1.7758090777824047 1.6829411958029237 C -1.510352247259899 1.664030023179949 -1.2687094859663253 1.5428584356327364 -1.0943064495544421 1.3418396747885173 C -0.919903413142559 1.1408209139442986 -0.8344529294387439 0.8844694628328553 -0.8533641020617195 0.61901263231035 C -0.892587274909372 0.0712890400449171 -1.369569073288861 -0.34195510245713623 -1.9172926655542937 -0.3027319296094837 C -2.2002598410980725 -0.2824199293848065 -2.4601133612137702 -0.14233716921461903 -2.632415156223101 0.07899359185427712 L -2.818725227249451 -0.048481719900593245 C -2.6079006731933188 -0.32444475743586276 -2.285710324801887 -0.500248621449448 -1.9369042519781203 -0.5247631044792309 C -1.267308658364624 -0.5723912429370945 -0.6831635484549419 -0.06669247872271755 -0.635535409997078 0.6029031148907791 C -0.6124217545689974 0.9292959460873154 -0.7174838246966377 1.2430813288685352 -0.9304096201553227 1.4889265729672139 Z" fill="#382d5e" transform="matrix(1,0,0,1,0,0)" fill-rule="nonzero"></path></g><g clip-path="url(#SvgjsClipPath23119bf60ac6-50f1-473c-ba55-478abc4d1be2)"><path d=" M -2.1862515650810543 0.7401842198575619 L -1.83954673365984 0.7401842198575619 C -1.8080281126215478 0.7401842198575619 -1.7821128019900634 0.7142689092260774 -1.7821128019900634 0.6827502881877852 L -1.7821128019900634 0.6477295981452382 C -1.7821128019900634 0.616210977106946 -1.8080281126215478 0.5902956664754617 -1.83954673365984 0.5902956664754617 L -2.17574535806829 0.5902956664754617 L -3.3902628887438158 0.5902956664754617 L -3.2922049566246847 0.6715436673741704 L -3.3748537851250955 0.7401842198575623 L -2.1862515650810543 0.7401842198575623 Z" fill="#382d5e" transform="matrix(1,0,0,1,0,0)" fill-rule="nonzero"></path></g><g clip-path="url(#SvgjsClipPath23119bf60ac6-50f1-473c-ba55-478abc4d1be2)"><path d=" M -3.9302819291998885 0.6715436673741699 L -4.510224556304465 1.0595729130455893 L -3.75938096179226 1.0595729130455893 L -3.3748537851250946 0.7401842198575619 L -3.2922049566246847 0.6715436673741699 Z" fill="#c84449" transform="matrix(1,0,0,1,0,0)" fill-rule="nonzero"></path></g><g clip-path="url(#SvgjsClipPath23119bf60ac6-50f1-473c-ba55-478abc4d1be2)"><path d=" M -1.8654620442913243 0.36266118119890645 C -2.0104477010674686 0.36266118119890645 -2.133720530017234 0.45791745811463413 -2.175044944267439 0.58959525267461 L -1.8388463198589888 0.58959525267461 C -1.8073276988206963 0.58959525267461 -1.7814123881892119 0.6155105633060944 -1.7814123881892119 0.6470291843443867 L -1.7814123881892119 0.6820498743869337 C -1.7814123881892119 0.7135684954252259 -1.8073276988206963 0.7394838060567106 -1.8388463198589888 0.7394838060567106 L -2.1855511512802033 0.7394838060567106 C -2.160336254449569 0.894275256044768 -2.0265572184870404 1.012645188388576 -1.8647616304904737 1.012645188388576 C -1.6854556974726331 1.012645188388576 -1.5397696268956387 0.8669591178115812 -1.5397696268956387 0.6876531847937413 C -1.5404700406964897 0.5083472517759016 -1.6861561112734846 0.36266118119890645 -1.8654620442913243 0.36266118119890645 Z" fill="#e37f7c" transform="matrix(1,0,0,1,0,0)" fill-rule="nonzero"></path></g><g clip-path="url(#SvgjsClipPath23119bf60ac6-50f1-473c-ba55-478abc4d1be2)"><path d=" M -3.75938096179226 0.28351442170275076 L -4.510224556304465 0.28351442170275076 L -3.9302819291998885 0.6715436673741699 L -3.2922049566246847 0.6715436673741699 L -3.3902628887438158 0.5895952526746107 Z" fill="#e37f7c" transform="matrix(1,0,0,1,0,0)" fill-rule="nonzero"></path></g></g><g><path d=" M 0.758056640625 0.83056640625 Q 0.791748046875 0.83056640625 0.812255859375 0.814453125 Q 0.832763671875 0.79833984375 0.843017578125 0.7734375 Q 0.853271484375 0.74853515625 0.8565673828125 0.7177734375 Q 0.85986328125 0.68701171875 0.85986328125 0.658447265625 Q 0.85986328125 0.639404296875 0.859130859375 0.623291015625 Q 0.8583984375 0.607177734375 0.8583984375 0.593994140625 Q 0.8583984375 0.55224609375 0.8551025390625 0.5101318359375 Q 0.851806640625 0.468017578125 0.8389892578125 0.434326171875 Q 0.826171875 0.400634765625 0.800537109375 0.37939453125 Q 0.77490234375 0.358154296875 0.73095703125 0.358154296875 Q 0.703125 0.358154296875 0.6873779296875 0.3673095703125 Q 0.671630859375 0.37646484375 0.6639404296875 0.392578125 Q 0.65625 0.40869140625 0.6544189453125 0.4295654296875 Q 0.652587890625 0.450439453125 0.652587890625 0.474609375 L 0.652587890625 0.8232421875 Q 0.65478515625 0.825439453125 0.66650390625 0.826904296875 Q 0.6767578125 0.828369140625 0.6976318359375 0.8294677734375 Q 0.718505859375 0.83056640625 0.758056640625 0.83056640625 M 0.826904296875 0.216064453125 Q 0.964599609375 0.216064453125 1.0667724609375 0.2479248046875 Q 1.1689453125 0.27978515625 1.2366943359375 0.3314208984375 Q 1.304443359375 0.383056640625 1.3377685546875 0.4493408203125 Q 1.37109375 0.515625 1.37109375 0.58447265625 Q 1.37109375 0.655517578125 1.3363037109375 0.7239990234375 Q 1.301513671875 0.79248046875 1.2330322265625 0.845947265625 Q 1.16455078125 0.8994140625 1.062744140625 0.9320068359375 Q 0.9609375 0.964599609375 0.826904296875 0.964599609375 Q 0.815185546875 0.964599609375 0.790283203125 0.9642333984375 Q 0.765380859375 0.9638671875 0.7379150390625 0.9635009765625 Q 0.71044921875 0.963134765625 0.685546875 0.9627685546875 Q 0.66064453125 0.96240234375 0.649658203125 0.961669921875 L 0.649658203125 1.072265625 Q 0.649658203125 1.105224609375 0.658447265625 1.12353515625 Q 0.667236328125 1.141845703125 0.680419921875 1.1513671875 Q 0.693603515625 1.160888671875 0.708984375 1.16455078125 Q 0.724365234375 1.168212890625 0.737548828125 1.172607421875 Q 0.750732421875 1.177001953125 0.759521484375 1.1846923828125 Q 0.768310546875 1.1923828125 0.768310546875 1.2099609375 Q 0.768310546875 1.301513671875 0.673828125 1.3421630859375 Q 0.579345703125 1.3828125 0.400634765625 1.3828125 Q 0.314208984375 1.3828125 0.2471923828125 1.3729248046875 Q 0.18017578125 1.363037109375 0.1343994140625 1.3421630859375 Q 0.088623046875 1.3212890625 0.0648193359375 1.288330078125 Q 0.041015625 1.25537109375 0.041015625 1.2099609375 Q 0.041015625 1.1923828125 0.0498046875 1.1846923828125 Q 0.05859375 1.177001953125 0.0714111328125 1.1729736328125 Q 0.084228515625 1.1689453125 0.0992431640625 1.165283203125 Q 0.1142578125 1.16162109375 0.1270751953125 1.1524658203125 Q 0.139892578125 1.143310546875 0.148681640625 1.125732421875 Q 0.157470703125 1.108154296875 0.157470703125 1.0751953125 L 0.157470703125 0.52294921875 Q 0.157470703125 0.49072265625 0.148681640625 0.4727783203125 Q 0.139892578125 0.454833984375 0.1270751953125 0.4456787109375 Q 0.1142578125 0.4365234375 0.0992431640625 0.432861328125 Q 0.084228515625 0.42919921875 0.0714111328125 0.4251708984375 Q 0.05859375 0.421142578125 0.0498046875 0.4134521484375 Q 0.041015625 0.40576171875 0.041015625 0.38818359375 Q 0.041015625 0.343505859375 0.0640869140625 0.3109130859375 Q 0.087158203125 0.2783203125 0.1318359375 0.257080078125 Q 0.176513671875 0.23583984375 0.24169921875 0.2259521484375 Q 0.306884765625 0.216064453125 0.39111328125 0.216064453125 L 0.400634765625 0.216064453125 L 0.826904296875 0.216064453125 M 1.9416503906250002 1.100830078125 Q 1.9416503906250002 1.130859375 1.9497070312500002 1.147705078125 Q 1.9577636718750002 1.16455078125 1.9694824218750002 1.1729736328125 Q 1.9812011718750002 1.181396484375 1.9954833984375002 1.1846923828125 Q 2.009765625 1.18798828125 2.021484375 1.191650390625 Q 2.033203125 1.1953125 2.041259765625 1.2022705078125 Q 2.04931640625 1.209228515625 2.04931640625 1.225341796875 Q 2.04931640625 1.308837890625 1.9628906250000002 1.3458251953125 Q 1.8764648437500002 1.3828125 1.7131347656250002 1.3828125 Q 1.6347656250000002 1.3828125 1.5739746093750002 1.3740234375 Q 1.5131835937500002 1.365234375 1.4714355468750002 1.3458251953125 Q 1.4296875000000002 1.326416015625 1.4080810546875002 1.2967529296875 Q 1.3864746093750002 1.26708984375 1.3864746093750002 1.225341796875 Q 1.3864746093750002 1.209228515625 1.3941650390625002 1.2022705078125 Q 1.4018554687500002 1.1953125 1.4139404296875002 1.191650390625 Q 1.4260253906250002 1.18798828125 1.4395751953125002 1.18505859375 Q 1.4531250000000002 1.18212890625 1.4652099609375002 1.1737060546875 Q 1.4772949218750002 1.165283203125 1.4849853515625002 1.1495361328125 Q 1.4926757812500002 1.1337890625 1.4926757812500002 1.103759765625 L 1.4926757812500002 0.280517578125 Q 1.4926757812500002 0.25048828125 1.4849853515625002 0.2347412109375 Q 1.4772949218750002 0.218994140625 1.4652099609375002 0.2105712890625 Q 1.4531250000000002 0.2021484375 1.4395751953125002 0.19921875 Q 1.4260253906250002 0.1962890625 1.4139404296875002 0.192626953125 Q 1.4018554687500002 0.18896484375 1.3941650390625002 0.1820068359375 Q 1.3864746093750002 0.175048828125 1.3864746093750002 0.158935546875 Q 1.3864746093750002 0.1171875 1.4080810546875002 0.0875244140625 Q 1.4296875000000002 0.057861328125 1.4714355468750002 0.0384521484375 Q 1.5131835937500002 0.01904296875 1.5739746093750002 0.01025390625 Q 1.6347656250000002 0.00146484375 1.7131347656250002 0.00146484375 Q 1.7922363281250002 0.00146484375 1.8376464843750002 0.009521484375 Q 1.8830566406250002 0.017578125 1.9061279296875002 0.0369873046875 Q 1.9291992187500002 0.056396484375 1.9354248046875002 0.08935546875 Q 1.9416503906250002 0.122314453125 1.9416503906250002 0.172119140625 L 1.9416503906250002 1.100830078125 M 2.6169433593750004 1.232666015625 Q 2.6411132812500004 1.232666015625 2.6561279296875004 1.2249755859375 Q 2.6711425781250004 1.21728515625 2.6791992187500004 1.2030029296875 Q 2.6872558593750004 1.188720703125 2.6898193359375004 1.1678466796875 Q 2.6923828125000004 1.14697265625 2.6923828125000004 1.12060546875 Q 2.6923828125000004 1.097900390625 2.6916503906250004 1.062744140625 Q 2.6909179687500004 1.027587890625 2.6901855468750004 0.993896484375 Q 2.6887207031250004 0.954345703125 2.6879882812500004 0.911865234375 Q 2.6777343750000004 0.910400390625 2.6685791015625004 0.9093017578125 Q 2.6594238281250004 0.908203125 2.6506347656250004 0.908203125 Q 2.6132812500000004 0.908203125 2.5880126953125004 0.9232177734375 Q 2.5627441406250004 0.938232421875 2.5473632812500004 0.9649658203125 Q 2.5319824218750004 0.99169921875 2.5257568359375004 1.0279541015625 Q 2.5195312500000004 1.064208984375 2.5195312500000004 1.106689453125 Q 2.5195312500000004 1.13232421875 2.5224609375000004 1.1553955078125 Q 2.5253906250000004 1.178466796875 2.5356445312500004 1.1956787109375 Q 2.5458984375000004 1.212890625 2.5653076171875004 1.2227783203125 Q 2.5847167968750004 1.232666015625 2.6169433593750004 1.232666015625 M 2.9699707031250004 1.3828125 Q 2.9326171875000004 1.3828125 2.8956298828125004 1.3787841796875 Q 2.8586425781250004 1.374755859375 2.8253173828125004 1.3623046875 Q 2.7919921875000004 1.349853515625 2.7641601562500004 1.326416015625 Q 2.7363281250000004 1.302978515625 2.7165527343750004 1.26416015625 Q 2.7019042968750004 1.298583984375 2.6693115234375004 1.32421875 Q 2.6367187500000004 1.349853515625 2.5953369140625004 1.3670654296875 Q 2.5539550781250004 1.38427734375 2.5081787109375004 1.3927001953125 Q 2.4624023437500004 1.401123046875 2.4206542968750004 1.401123046875 Q 2.3466796875000004 1.401123046875 2.2910156250000004 1.383544921875 Q 2.2353515625000004 1.365966796875 2.1972656250000004 1.3333740234375 Q 2.1591796875000004 1.30078125 2.1401367187500004 1.25537109375 Q 2.1210937500000004 1.2099609375 2.1210937500000004 1.153564453125 Q 2.1210937500000004 1.0869140625 2.1434326171875004 1.0272216796875 Q 2.1657714843750004 0.967529296875 2.2196044921875004 0.9228515625 Q 2.2734375000000004 0.878173828125 2.3635253906250004 0.8521728515625 Q 2.4536132812500004 0.826171875 2.5891113281250004 0.826171875 L 2.6894531250000004 0.826171875 Q 2.6894531250000004 0.744873046875 2.6839599609375004 0.69140625 Q 2.6784667968750004 0.637939453125 2.6667480468750004 0.6064453125 Q 2.6550292968750004 0.574951171875 2.6374511718750004 0.5625 Q 2.6198730468750004 0.550048828125 2.5949707031250004 0.550048828125 Q 2.5671386718750004 0.550048828125 2.5484619140625004 0.56689453125 Q 2.5297851562500004 0.583740234375 2.5184326171875004 0.6156005859375 Q 2.5070800781250004 0.6474609375 2.5023193359375004 0.6925048828125 Q 2.4975585937500004 0.737548828125 2.4975585937500004 0.794677734375 Q 2.4660644531250004 0.794677734375 2.4312744140625004 0.7935791015625 Q 2.3964843750000004 0.79248046875 2.3624267578125004 0.7880859375 Q 2.3283691406250004 0.78369140625 2.2979736328125004 0.7745361328125 Q 2.2675781250000004 0.765380859375 2.2441406250000004 0.7496337890625 Q 2.2207031250000004 0.73388671875 2.2067871093750004 0.709716796875 Q 2.1928710937500004 0.685546875 2.1928710937500004 0.651123046875 Q 2.1928710937500004 0.602783203125 2.2181396484375004 0.5595703125 Q 2.2434082031250004 0.516357421875 2.2957763671875004 0.4837646484375 Q 2.3481445312500004 0.451171875 2.4287109375000004 0.4317626953125 Q 2.5092773437500004 0.412353515625 2.6206054687500004 0.412353515625 Q 2.7502441406250004 0.412353515625 2.8439941406250004 0.438720703125 Q 2.9377441406250004 0.465087890625 2.9981689453125004 0.517822265625 Q 3.0585937500000004 0.570556640625 3.0875244140625004 0.6507568359375 Q 3.1164550781250004 0.73095703125 3.1164550781250004 0.838623046875 L 3.1164550781250004 1.097900390625 Q 3.1164550781250004 1.12939453125 3.1248779296875004 1.14697265625 Q 3.1333007812500004 1.16455078125 3.1453857421875004 1.1737060546875 Q 3.1574707031250004 1.182861328125 3.1721191406250004 1.1865234375 Q 3.1867675781250004 1.190185546875 3.1988525390625004 1.1942138671875 Q 3.2109375000000004 1.1982421875 3.2193603515625004 1.2052001953125 Q 3.2277832031250004 1.212158203125 3.2277832031250004 1.228271484375 Q 3.2277832031250004 1.301513671875 3.1622314453125004 1.3421630859375 Q 3.0966796875000004 1.3828125 2.9699707031250004 1.3828125 M 3.8503417968750004 0.412353515625 Q 3.9345703125000004 0.412353515625 4.00048828125 0.42919921875 Q 4.06640625 0.446044921875 4.11474609375 0.476806640625 Q 4.13525390625 0.463623046875 4.1605224609375 0.451904296875 Q 4.185791015625 0.440185546875 4.2132568359375 0.431396484375 Q 4.24072265625 0.422607421875 4.269287109375 0.41748046875 Q 4.2978515625 0.412353515625 4.324951171875 0.412353515625 Q 4.35498046875 0.412353515625 4.3817138671875 0.4193115234375 Q 4.408447265625 0.42626953125 4.42822265625 0.4412841796875 Q 4.447998046875 0.456298828125 4.459716796875 0.48046875 Q 4.471435546875 0.504638671875 4.471435546875 0.539794921875 Q 4.471435546875 0.5625 4.4637451171875 0.5841064453125 Q 4.4560546875 0.605712890625 4.440673828125 0.6229248046875 Q 4.42529296875 0.64013671875 4.4022216796875 0.6507568359375 Q 4.379150390625 0.661376953125 4.348388671875 0.661376953125 Q 4.317626953125 0.661376953125 4.3004150390625 0.652587890625 Q 4.283203125 0.643798828125 4.273681640625 0.630615234375 Q 4.26416015625 0.617431640625 4.259765625 0.60205078125 Q 4.25537109375 0.586669921875 4.250244140625 0.573486328125 Q 4.2451171875 0.560302734375 4.2374267578125 0.551513671875 Q 4.229736328125 0.542724609375 4.213623046875 0.542724609375 Q 4.2099609375 0.542724609375 4.20556640625 0.54345703125 Q 4.201171875 0.544189453125 4.1953125 0.545654296875 Q 4.228271484375 0.58447265625 4.244384765625 0.629150390625 Q 4.260498046875 0.673828125 4.260498046875 0.719970703125 Q 4.260498046875 0.785888671875 4.2301025390625 0.8499755859375 Q 4.19970703125 0.9140625 4.1400146484375 0.96533203125 Q 4.080322265625 1.0166015625 3.9920654296875004 1.048095703125 Q 3.9038085937500004 1.07958984375 3.7888183593750004 1.07958984375 Q 3.7302246093750004 1.07958984375 3.6723632812500004 1.07080078125 L 3.6723632812500004 1.089111328125 Q 3.6723632812500004 1.107421875 3.7012939453125004 1.1158447265625 Q 3.7302246093750004 1.124267578125 3.7770996093750004 1.12939453125 Q 3.8239746093750004 1.134521484375 3.8843994140625004 1.1392822265625 Q 3.9448242187500004 1.14404296875 4.0074462890625 1.154296875 Q 4.070068359375 1.16455078125 4.1304931640625 1.184326171875 Q 4.19091796875 1.2041015625 4.23779296875 1.2388916015625 Q 4.28466796875 1.273681640625 4.3135986328125 1.3271484375 Q 4.342529296875 1.380615234375 4.342529296875 1.458984375 Q 4.342529296875 1.522705078125 4.323486328125 1.573974609375 Q 4.304443359375 1.625244140625 4.270751953125 1.66552734375 Q 4.237060546875 1.705810546875 4.19091796875 1.735107421875 Q 4.144775390625 1.764404296875 4.090576171875 1.783447265625 Q 4.036376953125 1.802490234375 3.9759521484375004 1.8116455078125 Q 3.9155273437500004 1.82080078125 3.8540039062500004 1.82080078125 Q 3.7888183593750004 1.82080078125 3.7243652343750004 1.8145751953125 Q 3.6599121093750004 1.808349609375 3.6013183593750004 1.7933349609375 Q 3.5427246093750004 1.7783203125 3.4925537109375004 1.7545166015625 Q 3.4423828125000004 1.730712890625 3.4053955078125004 1.6951904296875 Q 3.3684082031250004 1.65966796875 3.3471679687500004 1.6116943359375 Q 3.3259277343750004 1.563720703125 3.3259277343750004 1.50146484375 Q 3.3259277343750004 1.46044921875 3.3391113281250004 1.4315185546875 Q 3.3522949218750004 1.402587890625 3.3735351562500004 1.38427734375 Q 3.3361816406250004 1.357177734375 3.3145751953125004 1.3165283203125 Q 3.2929687500000004 1.27587890625 3.2929687500000004 1.216552734375 Q 3.2929687500000004 1.17626953125 3.3068847656250004 1.14404296875 Q 3.3208007812500004 1.11181640625 3.3464355468750004 1.0869140625 Q 3.3720703125000004 1.06201171875 3.4083251953125004 1.0440673828125 Q 3.4445800781250004 1.026123046875 3.4892578125000004 1.013671875 Q 3.4482421875000004 0.9931640625 3.4149169921875004 0.96533203125 Q 3.3815917968750004 0.9375 3.3577880859375004 0.903076171875 Q 3.3339843750000004 0.86865234375 3.3208007812500004 0.8272705078125 Q 3.3076171875000004 0.785888671875 3.3076171875000004 0.737548828125 Q 3.3076171875000004 0.6767578125 3.3405761718750004 0.6185302734375 Q 3.3735351562500004 0.560302734375 3.4405517578125004 0.5145263671875 Q 3.5075683593750004 0.46875 3.6097412109375004 0.4405517578125 Q 3.7119140625000004 0.412353515625 3.8503417968750004 0.412353515625 M 3.9733886718750004 1.52197265625 Q 3.9733886718750004 1.5029296875 3.9561767578125004 1.491943359375 Q 3.9389648437500004 1.48095703125 3.9093017578125004 1.47509765625 Q 3.8796386718750004 1.46923828125 3.8397216796875004 1.467041015625 Q 3.7998046875000004 1.46484375 3.7540283203125004 1.4630126953125 Q 3.7082519531250004 1.461181640625 3.6595458984375004 1.458251953125 Q 3.6108398437500004 1.455322265625 3.5639648437500004 1.44873046875 Q 3.5646972656250004 1.4677734375 3.5654296875000004 1.4871826171875 Q 3.5661621093750004 1.506591796875 3.5727539062500004 1.5252685546875 Q 3.5793457031250004 1.5439453125 3.5936279296875004 1.56005859375 Q 3.6079101562500004 1.576171875 3.6353759765625004 1.588623046875 Q 3.6628417968750004 1.60107421875 3.7049560546875004 1.6080322265625 Q 3.7470703125000004 1.614990234375 3.8100585937500004 1.614990234375 Q 3.8642578125000004 1.614990234375 3.8964843750000004 1.606201171875 Q 3.9287109375000004 1.597412109375 3.9459228515625004 1.58349609375 Q 3.9631347656250004 1.569580078125 3.9682617187500004 1.5531005859375 Q 3.9733886718750004 1.53662109375 3.9733886718750004 1.52197265625 M 3.8041992187500004 0.599853515625 Q 3.7778320312500004 0.599853515625 3.7591552734375004 0.6090087890625 Q 3.7404785156250004 0.6181640625 3.7291259765625004 0.633544921875 Q 3.7177734375000004 0.64892578125 3.7122802734375004 0.66943359375 Q 3.7067871093750004 0.68994140625 3.7067871093750004 0.712646484375 Q 3.7067871093750004 0.741943359375 3.7148437500000004 0.7716064453125 Q 3.7229003906250004 0.80126953125 3.7371826171875004 0.825439453125 Q 3.7514648437500004 0.849609375 3.7708740234375004 0.864990234375 Q 3.7902832031250004 0.88037109375 3.8129882812500004 0.88037109375 Q 3.8378906250000004 0.88037109375 3.8569335937500004 0.8690185546875 Q 3.8759765625000004 0.857666015625 3.8884277343750004 0.8389892578125 Q 3.9008789062500004 0.8203125 3.9071044921875004 0.7965087890625 Q 3.9133300781250004 0.772705078125 3.9133300781250004 0.7470703125 Q 3.9133300781250004 0.719970703125 3.9063720703125004 0.693603515625 Q 3.8994140625000004 0.667236328125 3.8854980468750004 0.6463623046875 Q 3.8715820312500004 0.62548828125 3.8514404296875004 0.6126708984375 Q 3.8312988281250004 0.599853515625 3.8041992187500004 0.599853515625 M 4.584960937500001 0.181640625 Q 4.584960937500001 0.14501953125 4.597778320312501 0.1175537109375 Q 4.610595703125001 0.090087890625 4.630737304687501 0.0699462890625 Q 4.650878906250001 0.0498046875 4.676879882812501 0.0362548828125 Q 4.702880859375001 0.022705078125 4.729248046875001 0.0146484375 Q 4.755615234375001 0.006591796875 4.780151367187501 0.0032958984375 Q 4.804687500000001 0 4.822998046875001 0 Q 4.842773437500001 0 4.868041992187501 0.0032958984375 Q 4.893310546875001 0.006591796875 4.919677734375001 0.0146484375 Q 4.946044921875001 0.022705078125 4.971679687500001 0.0362548828125 Q 4.997314453125001 0.0498046875 5.017456054687501 0.0699462890625 Q 5.037597656250001 0.090087890625 5.049682617187501 0.1175537109375 Q 5.061767578125001 0.14501953125 5.061767578125001 0.181640625 Q 5.061767578125001 0.217529296875 5.049682617187501 0.245361328125 Q 5.037597656250001 0.273193359375 5.017456054687501 0.29296875 Q 4.997314453125001 0.312744140625 4.971679687500001 0.3262939453125 Q 4.946044921875001 0.33984375 4.919677734375001 0.347900390625 Q 4.893310546875001 0.35595703125 4.868041992187501 0.3592529296875 Q 4.842773437500001 0.362548828125 4.822998046875001 0.362548828125 Q 4.804687500000001 0.362548828125 4.780151367187501 0.3592529296875 Q 4.755615234375001 0.35595703125 4.729248046875001 0.347900390625 Q 4.702880859375001 0.33984375 4.676879882812501 0.3262939453125 Q 4.650878906250001 0.312744140625 4.630737304687501 0.29296875 Q 4.610595703125001 0.273193359375 4.597778320312501 0.2457275390625 Q 4.584960937500001 0.21826171875 4.584960937500001 0.181640625 M 5.039062500000001 1.103759765625 Q 5.039062500000001 1.133056640625 5.047119140625001 1.149169921875 Q 5.055175781250001 1.165283203125 5.067260742187501 1.1737060546875 Q 5.079345703125001 1.18212890625 5.093261718750001 1.18505859375 Q 5.107177734375001 1.18798828125 5.119262695312501 1.191650390625 Q 5.131347656250001 1.1953125 5.139404296875001 1.2022705078125 Q 5.147460937500001 1.209228515625 5.147460937500001 1.225341796875 Q 5.147460937500001 1.308837890625 5.061035156250001 1.3458251953125 Q 4.974609375000001 1.3828125 4.811279296875001 1.3828125 Q 4.732177734375001 1.3828125 4.671386718750001 1.3740234375 Q 4.610595703125001 1.365234375 4.568847656250001 1.3458251953125 Q 4.527099609375001 1.326416015625 4.505493164062501 1.2967529296875 Q 4.483886718750001 1.26708984375 4.483886718750001 1.225341796875 Q 4.483886718750001 1.209228515625 4.491943359375001 1.2022705078125 Q 4.500000000000001 1.1953125 4.511718750000001 1.191650390625 Q 4.523437500000001 1.18798828125 4.537353515625001 1.18505859375 Q 4.551269531250001 1.18212890625 4.562988281250001 1.1737060546875 Q 4.574707031250001 1.165283203125 4.582763671875001 1.1495361328125 Q 4.590820312500001 1.1337890625 4.590820312500001 1.103759765625 L 4.590820312500001 0.712646484375 Q 4.590820312500001 0.683349609375 4.582763671875001 0.667236328125 Q 4.574707031250001 0.651123046875 4.562988281250001 0.6427001953125 Q 4.551269531250001 0.63427734375 4.537353515625001 0.63134765625 Q 4.523437500000001 0.62841796875 4.511718750000001 0.624755859375 Q 4.500000000000001 0.62109375 4.491943359375001 0.6141357421875 Q 4.483886718750001 0.607177734375 4.483886718750001 0.591064453125 Q 4.483886718750001 0.54931640625 4.505493164062501 0.5196533203125 Q 4.527099609375001 0.489990234375 4.568847656250001 0.4705810546875 Q 4.610595703125001 0.451171875 4.671386718750001 0.4423828125 Q 4.732177734375001 0.43359375 4.811279296875001 0.43359375 Q 4.890380859375001 0.43359375 4.935791015625001 0.441650390625 Q 4.981201171875001 0.44970703125 5.004272460937501 0.4691162109375 Q 5.027343750000001 0.488525390625 5.033203125000001 0.521484375 Q 5.039062500000001 0.554443359375 5.039062500000001 0.604248046875 L 5.039062500000001 1.103759765625 M 5.710693359375001 1.232666015625 Q 5.734863281250001 1.232666015625 5.749877929687501 1.2249755859375 Q 5.764892578125001 1.21728515625 5.772949218750001 1.2030029296875 Q 5.781005859375001 1.188720703125 5.783569335937501 1.1678466796875 Q 5.786132812500001 1.14697265625 5.786132812500001 1.12060546875 Q 5.786132812500001 1.097900390625 5.785400390625001 1.062744140625 Q 5.784667968750001 1.027587890625 5.783935546875001 0.993896484375 Q 5.782470703125001 0.954345703125 5.781738281250001 0.911865234375 Q 5.771484375000001 0.910400390625 5.762329101562501 0.9093017578125 Q 5.753173828125001 0.908203125 5.744384765625001 0.908203125 Q 5.707031250000001 0.908203125 5.681762695312501 0.9232177734375 Q 5.656494140625001 0.938232421875 5.641113281250001 0.9649658203125 Q 5.625732421875001 0.99169921875 5.619506835937501 1.0279541015625 Q 5.613281250000001 1.064208984375 5.613281250000001 1.106689453125 Q 5.613281250000001 1.13232421875 5.616210937500001 1.1553955078125 Q 5.619140625000001 1.178466796875 5.629394531250001 1.1956787109375 Q 5.639648437500001 1.212890625 5.659057617187501 1.2227783203125 Q 5.678466796875001 1.232666015625 5.710693359375001 1.232666015625 M 6.063720703125001 1.3828125 Q 6.026367187500001 1.3828125 5.989379882812501 1.3787841796875 Q 5.952392578125001 1.374755859375 5.919067382812501 1.3623046875 Q 5.885742187500001 1.349853515625 5.857910156250001 1.326416015625 Q 5.830078125000001 1.302978515625 5.810302734375001 1.26416015625 Q 5.795654296875001 1.298583984375 5.763061523437501 1.32421875 Q 5.730468750000001 1.349853515625 5.689086914062501 1.3670654296875 Q 5.647705078125001 1.38427734375 5.601928710937501 1.3927001953125 Q 5.556152343750001 1.401123046875 5.514404296875001 1.401123046875 Q 5.440429687500001 1.401123046875 5.384765625000001 1.383544921875 Q 5.329101562500001 1.365966796875 5.291015625000001 1.3333740234375 Q 5.252929687500001 1.30078125 5.233886718750001 1.25537109375 Q 5.214843750000001 1.2099609375 5.214843750000001 1.153564453125 Q 5.214843750000001 1.0869140625 5.237182617187501 1.0272216796875 Q 5.259521484375001 0.967529296875 5.313354492187501 0.9228515625 Q 5.367187500000001 0.878173828125 5.457275390625001 0.8521728515625 Q 5.547363281250001 0.826171875 5.682861328125001 0.826171875 L 5.783203125000001 0.826171875 Q 5.783203125000001 0.744873046875 5.777709960937501 0.69140625 Q 5.772216796875001 0.637939453125 5.760498046875001 0.6064453125 Q 5.748779296875001 0.574951171875 5.731201171875001 0.5625 Q 5.713623046875001 0.550048828125 5.688720703125001 0.550048828125 Q 5.660888671875001 0.550048828125 5.642211914062501 0.56689453125 Q 5.623535156250001 0.583740234375 5.612182617187501 0.6156005859375 Q 5.600830078125001 0.6474609375 5.596069335937501 0.6925048828125 Q 5.591308593750001 0.737548828125 5.591308593750001 0.794677734375 Q 5.559814453125001 0.794677734375 5.525024414062501 0.7935791015625 Q 5.490234375000001 0.79248046875 5.456176757812501 0.7880859375 Q 5.422119140625001 0.78369140625 5.391723632812501 0.7745361328125 Q 5.361328125000001 0.765380859375 5.337890625000001 0.7496337890625 Q 5.314453125000001 0.73388671875 5.300537109375001 0.709716796875 Q 5.286621093750001 0.685546875 5.286621093750001 0.651123046875 Q 5.286621093750001 0.602783203125 5.311889648437501 0.5595703125 Q 5.337158203125001 0.516357421875 5.389526367187501 0.4837646484375 Q 5.441894531250001 0.451171875 5.522460937500001 0.4317626953125 Q 5.603027343750001 0.412353515625 5.714355468750001 0.412353515625 Q 5.843994140625001 0.412353515625 5.937744140625001 0.438720703125 Q 6.031494140625001 0.465087890625 6.091918945312501 0.517822265625 Q 6.152343750000001 0.570556640625 6.181274414062501 0.6507568359375 Q 6.210205078125001 0.73095703125 6.210205078125001 0.838623046875 L 6.210205078125001 1.097900390625 Q 6.210205078125001 1.12939453125 6.218627929687501 1.14697265625 Q 6.227050781250001 1.16455078125 6.239135742187501 1.1737060546875 Q 6.251220703125001 1.182861328125 6.265869140625001 1.1865234375 Q 6.280517578125001 1.190185546875 6.292602539062501 1.1942138671875 Q 6.304687500000001 1.1982421875 6.313110351562501 1.2052001953125 Q 6.321533203125001 1.212158203125 6.321533203125001 1.228271484375 Q 6.321533203125001 1.301513671875 6.255981445312501 1.3421630859375 Q 6.190429687500001 1.3828125 6.063720703125001 1.3828125 M 6.907470703125001 1.100830078125 Q 6.907470703125001 1.130859375 6.915527343750001 1.147705078125 Q 6.923583984375001 1.16455078125 6.935668945312501 1.1729736328125 Q 6.947753906250001 1.181396484375 6.961669921875001 1.1846923828125 Q 6.975585937500001 1.18798828125 6.987670898437501 1.191650390625 Q 6.999755859375001 1.1953125 7.007812500000001 1.2022705078125 Q 7.015869140625001 1.209228515625 7.015869140625001 1.225341796875 Q 7.015869140625001 1.308837890625 6.929443359375001 1.3458251953125 Q 6.843017578125001 1.3828125 6.679687500000001 1.3828125 Q 6.600585937500001 1.3828125 6.539794921875001 1.3740234375 Q 6.479003906250001 1.365234375 6.437255859375001 1.3458251953125 Q 6.395507812500001 1.326416015625 6.373901367187501 1.2967529296875 Q 6.352294921875001 1.26708984375 6.352294921875001 1.225341796875 Q 6.352294921875001 1.209228515625 6.360351562500001 1.2022705078125 Q 6.368408203125001 1.1953125 6.380126953125001 1.191650390625 Q 6.391845703125001 1.18798828125 6.405761718750001 1.18505859375 Q 6.419677734375001 1.18212890625 6.431396484375001 1.1737060546875 Q 6.443115234375001 1.165283203125 6.451171875000001 1.1495361328125 Q 6.459228515625001 1.1337890625 6.459228515625001 1.103759765625 L 6.459228515625001 0.712646484375 Q 6.459228515625001 0.683349609375 6.451171875000001 0.667236328125 Q 6.443115234375001 0.651123046875 6.431396484375001 0.6427001953125 Q 6.419677734375001 0.63427734375 6.405761718750001 0.63134765625 Q 6.391845703125001 0.62841796875 6.380126953125001 0.624755859375 Q 6.368408203125001 0.62109375 6.360351562500001 0.6141357421875 Q 6.352294921875001 0.607177734375 6.352294921875001 0.591064453125 Q 6.352294921875001 0.54931640625 6.373901367187501 0.5196533203125 Q 6.395507812500001 0.489990234375 6.437255859375001 0.4705810546875 Q 6.479003906250001 0.451171875 6.539794921875001 0.4423828125 Q 6.600585937500001 0.43359375 6.679687500000001 0.43359375 Q 6.752197265625001 0.43359375 6.795776367187501 0.4478759765625 Q 6.839355468750001 0.462158203125 6.864257812500001 0.489990234375 Q 6.884765625000001 0.476806640625 6.906738281250001 0.4647216796875 Q 6.928710937500001 0.45263671875 6.953613281250001 0.4434814453125 Q 6.978515625000001 0.434326171875 7.007812500000001 0.42919921875 Q 7.037109375000001 0.424072265625 7.072265625000001 0.424072265625 Q 7.116210937500001 0.424072265625 7.156860351562501 0.4332275390625 Q 7.197509765625001 0.4423828125 7.229003906250001 0.4632568359375 Q 7.260498046875001 0.484130859375 7.279174804687501 0.5174560546875 Q 7.297851562500001 0.55078125 7.297851562500001 0.599853515625 Q 7.297851562500001 0.632080078125 7.286865234375001 0.662841796875 Q 7.275878906250001 0.693603515625 7.254272460937501 0.7174072265625 Q 7.232666015625001 0.7412109375 7.200073242187501 0.755859375 Q 7.167480468750001 0.7705078125 7.125000000000001 0.7705078125 Q 7.082519531250001 0.7705078125 7.058349609375001 0.758056640625 Q 7.034179687500001 0.74560546875 7.020996093750001 0.727294921875 Q 7.007812500000001 0.708984375 7.001586914062501 0.6873779296875 Q 6.995361328125001 0.665771484375 6.988403320312501 0.6474609375 Q 6.981445312500001 0.629150390625 6.970092773437501 0.61669921875 Q 6.958740234375001 0.604248046875 6.936035156250001 0.604248046875 Q 6.913330078125001 0.604248046875 6.906005859375001 0.6097412109375 Q 6.898681640625001 0.615234375 6.898681640625001 0.62548828125 Q 6.898681640625001 0.638671875 6.903808593750001 0.6591796875 Q 6.908935546875001 0.6796875 6.908935546875001 0.708984375 L 6.907470703125001 1.100830078125 M 7.462646484375001 0.181640625 Q 7.462646484375001 0.14501953125 7.475463867187501 0.1175537109375 Q 7.488281250000001 0.090087890625 7.508422851562501 0.0699462890625 Q 7.528564453125001 0.0498046875 7.554565429687501 0.0362548828125 Q 7.580566406250001 0.022705078125 7.606933593750001 0.0146484375 Q 7.633300781250001 0.006591796875 7.657836914062501 0.0032958984375 Q 7.682373046875001 0 7.700683593750001 0 Q 7.720458984375001 0 7.745727539062501 0.0032958984375 Q 7.770996093750001 0.006591796875 7.797363281250001 0.0146484375 Q 7.823730468750001 0.022705078125 7.849365234375001 0.0362548828125 Q 7.875000000000001 0.0498046875 7.895141601562501 0.0699462890625 Q 7.915283203125001 0.090087890625 7.927368164062501 0.1175537109375 Q 7.939453125000001 0.14501953125 7.939453125000001 0.181640625 Q 7.939453125000001 0.217529296875 7.927368164062501 0.245361328125 Q 7.915283203125001 0.273193359375 7.895141601562501 0.29296875 Q 7.875000000000001 0.312744140625 7.849365234375001 0.3262939453125 Q 7.823730468750001 0.33984375 7.797363281250001 0.347900390625 Q 7.770996093750001 0.35595703125 7.745727539062501 0.3592529296875 Q 7.720458984375001 0.362548828125 7.700683593750001 0.362548828125 Q 7.682373046875001 0.362548828125 7.657836914062501 0.3592529296875 Q 7.633300781250001 0.35595703125 7.606933593750001 0.347900390625 Q 7.580566406250001 0.33984375 7.554565429687501 0.3262939453125 Q 7.528564453125001 0.312744140625 7.508422851562501 0.29296875 Q 7.488281250000001 0.273193359375 7.475463867187501 0.2457275390625 Q 7.462646484375001 0.21826171875 7.462646484375001 0.181640625 M 7.916748046875001 1.103759765625 Q 7.916748046875001 1.133056640625 7.924804687500001 1.149169921875 Q 7.932861328125001 1.165283203125 7.944946289062501 1.1737060546875 Q 7.957031250000001 1.18212890625 7.970947265625001 1.18505859375 Q 7.984863281250001 1.18798828125 7.996948242187501 1.191650390625 Q 8.009033203125 1.1953125 8.01708984375 1.2022705078125 Q 8.025146484375 1.209228515625 8.025146484375 1.225341796875 Q 8.025146484375 1.308837890625 7.938720703125001 1.3458251953125 Q 7.852294921875001 1.3828125 7.688964843750001 1.3828125 Q 7.609863281250001 1.3828125 7.549072265625001 1.3740234375 Q 7.488281250000001 1.365234375 7.446533203125001 1.3458251953125 Q 7.404785156250001 1.326416015625 7.383178710937501 1.2967529296875 Q 7.361572265625001 1.26708984375 7.361572265625001 1.225341796875 Q 7.361572265625001 1.209228515625 7.369628906250001 1.2022705078125 Q 7.377685546875001 1.1953125 7.389404296875001 1.191650390625 Q 7.401123046875001 1.18798828125 7.415039062500001 1.18505859375 Q 7.428955078125001 1.18212890625 7.440673828125001 1.1737060546875 Q 7.452392578125001 1.165283203125 7.460449218750001 1.1495361328125 Q 7.468505859375001 1.1337890625 7.468505859375001 1.103759765625 L 7.468505859375001 0.712646484375 Q 7.468505859375001 0.683349609375 7.460449218750001 0.667236328125 Q 7.452392578125001 0.651123046875 7.440673828125001 0.6427001953125 Q 7.428955078125001 0.63427734375 7.415039062500001 0.63134765625 Q 7.401123046875001 0.62841796875 7.389404296875001 0.624755859375 Q 7.377685546875001 0.62109375 7.369628906250001 0.6141357421875 Q 7.361572265625001 0.607177734375 7.361572265625001 0.591064453125 Q 7.361572265625001 0.54931640625 7.383178710937501 0.5196533203125 Q 7.404785156250001 0.489990234375 7.446533203125001 0.4705810546875 Q 7.488281250000001 0.451171875 7.549072265625001 0.4423828125 Q 7.609863281250001 0.43359375 7.688964843750001 0.43359375 Q 7.768066406250001 0.43359375 7.813476562500001 0.441650390625 Q 7.858886718750001 0.44970703125 7.881958007812501 0.4691162109375 Q 7.905029296875001 0.488525390625 7.910888671875001 0.521484375 Q 7.916748046875001 0.554443359375 7.916748046875001 0.604248046875 L 7.916748046875001 1.103759765625 M 8.66015625 0.604248046875 Q 8.66015625 0.58740234375 8.62939453125 0.573486328125 Q 8.5986328125 0.5595703125 8.53564453125 0.5595703125 Q 8.50341796875 0.5595703125 8.4832763671875 0.563232421875 Q 8.463134765625 0.56689453125 8.451416015625 0.573486328125 Q 8.439697265625 0.580078125 8.4356689453125 0.589599609375 Q 8.431640625 0.59912109375 8.431640625 0.611572265625 Q 8.431640625 0.6357421875 8.455078125 0.6536865234375 Q 8.478515625 0.671630859375 8.5169677734375 0.6884765625 Q 8.555419921875 0.705322265625 8.6044921875 0.72216796875 Q 8.653564453125 0.739013671875 8.704833984375 0.7606201171875 Q 8.756103515625 0.7822265625 8.80517578125 0.8104248046875 Q 8.854248046875 0.838623046875 8.8927001953125 0.8770751953125 Q 8.93115234375 0.91552734375 8.95458984375 0.966796875 Q 8.97802734375 1.01806640625 8.97802734375 1.08544921875 Q 8.97802734375 1.168212890625 8.9403076171875 1.2279052734375 Q 8.902587890625 1.28759765625 8.841064453125 1.3260498046875 Q 8.779541015625 1.364501953125 8.7008056640625 1.3828125 Q 8.6220703125 1.401123046875 8.5400390625 1.401123046875 Q 8.457275390625 1.401123046875 8.3778076171875 1.3839111328125 Q 8.29833984375 1.36669921875 8.236083984375 1.3359375 Q 8.173828125 1.30517578125 8.1357421875 1.261962890625 Q 8.09765625 1.21875 8.09765625 1.166748046875 Q 8.09765625 1.135986328125 8.107177734375 1.1129150390625 Q 8.11669921875 1.08984375 8.1324462890625 1.0748291015625 Q 8.148193359375 1.059814453125 8.168701171875 1.052490234375 Q 8.189208984375 1.045166015625 8.211181640625 1.045166015625 Q 8.246337890625 1.045166015625 8.26904296875 1.05322265625 Q 8.291748046875 1.061279296875 8.3060302734375 1.0740966796875 Q 8.3203125 1.0869140625 8.3291015625 1.1033935546875 Q 8.337890625 1.119873046875 8.345947265625 1.137451171875 Q 8.35400390625 1.155029296875 8.363525390625 1.1715087890625 Q 8.373046875 1.18798828125 8.38916015625 1.2008056640625 Q 8.4052734375 1.213623046875 8.4305419921875 1.2216796875 Q 8.455810546875 1.229736328125 8.49462890625 1.229736328125 Q 8.556884765625 1.229736328125 8.5865478515625 1.21875 Q 8.6162109375 1.207763671875 8.6162109375 1.175537109375 Q 8.6162109375 1.163818359375 8.5946044921875 1.1524658203125 Q 8.572998046875 1.14111328125 8.537841796875 1.128662109375 Q 8.502685546875 1.1162109375 8.457275390625 1.100830078125 Q 8.411865234375 1.08544921875 8.364990234375 1.0645751953125 Q 8.318115234375 1.043701171875 8.272705078125 1.0162353515625 Q 8.227294921875 0.98876953125 8.192138671875 0.9525146484375 Q 8.156982421875 0.916259765625 8.1353759765625 0.869384765625 Q 8.11376953125 0.822509765625 8.11376953125 0.76318359375 Q 8.11376953125 0.697998046875 8.1298828125 0.6463623046875 Q 8.14599609375 0.5947265625 8.1749267578125 0.5555419921875 Q 8.203857421875 0.516357421875 8.244140625 0.4892578125 Q 8.284423828125 0.462158203125 8.33203125 0.4449462890625 Q 8.379638671875 0.427734375 8.43310546875 0.4200439453125 Q 8.486572265625 0.412353515625 8.54296875 0.412353515625 Q 8.640380859375 0.412353515625 8.7099609375 0.4306640625 Q 8.779541015625 0.448974609375 8.8245849609375 0.4775390625 Q 8.86962890625 0.506103515625 8.890869140625 0.5416259765625 Q 8.912109375 0.5771484375 8.912109375 0.611572265625 Q 8.912109375 0.6357421875 8.9022216796875 0.6573486328125 Q 8.892333984375 0.678955078125 8.873291015625 0.695068359375 Q 8.854248046875 0.711181640625 8.8271484375 0.720703125 Q 8.800048828125 0.730224609375 8.764892578125 0.730224609375 Q 8.725341796875 0.730224609375 8.7000732421875 0.725830078125 Q 8.6748046875 0.721435546875 8.6597900390625 0.7137451171875 Q 8.644775390625 0.7060546875 8.638916015625 0.6954345703125 Q 8.633056640625 0.684814453125 8.633056640625 0.671630859375 Q 8.633056640625 0.658447265625 8.637451171875 0.65185546875 Q 8.641845703125 0.645263671875 8.6466064453125 0.6390380859375 Q 8.6513671875 0.6328125 8.65576171875 0.62548828125 Q 8.66015625 0.6181640625 8.66015625 0.604248046875 M 10.153564453125 0.50244140625 Q 10.166015625 0.494384765625 10.1861572265625 0.4793701171875 Q 10.206298828125 0.46435546875 10.245849609375 0.4493408203125 Q 10.285400390625 0.434326171875 10.3505859375 0.42333984375 Q 10.415771484375 0.412353515625 10.518310546875 0.412353515625 Q 10.59521484375 0.412353515625 10.65234375 0.4306640625 Q 10.70947265625 0.448974609375 10.7501220703125 0.48046875 Q 10.790771484375 0.511962890625 10.817138671875 0.5548095703125 Q 10.843505859375 0.59765625 10.85888671875 0.6470947265625 Q 10.874267578125 0.696533203125 10.880126953125 0.75 Q 10.885986328125 0.803466796875 10.885986328125 0.856201171875 L 10.885986328125 0.863525390625 Q 10.88525390625 0.95068359375 10.8848876953125 0.9979248046875 Q 10.884521484375 1.045166015625 10.884521484375 1.067138671875 Q 10.884521484375 1.089111328125 10.884521484375 1.0931396484375 Q 10.884521484375 1.09716796875 10.884521484375 1.09716796875 Q 10.884521484375 1.1279296875 10.892578125 1.1451416015625 Q 10.900634765625 1.162353515625 10.9127197265625 1.1715087890625 Q 10.9248046875 1.1806640625 10.9390869140625 1.1839599609375 Q 10.953369140625 1.187255859375 10.9654541015625 1.1912841796875 Q 10.9775390625 1.1953125 10.985595703125 1.2022705078125 Q 10.99365234375 1.209228515625 10.99365234375 1.225341796875 Q 10.99365234375 1.26708984375 10.9727783203125 1.2967529296875 Q 10.951904296875 1.326416015625 10.91162109375 1.3458251953125 Q 10.871337890625 1.365234375 10.8123779296875 1.3740234375 Q 10.75341796875 1.3828125 10.67724609375 1.3828125 Q 10.603271484375 1.3828125 10.5457763671875 1.3740234375 Q 10.48828125 1.365234375 10.44873046875 1.3458251953125 Q 10.4091796875 1.326416015625 10.388671875 1.2967529296875 Q 10.3681640625 1.26708984375 10.3681640625 1.225341796875 Q 10.3681640625 1.209228515625 10.3736572265625 1.2022705078125 Q 10.379150390625 1.1953125 10.38720703125 1.191650390625 Q 10.395263671875 1.18798828125 10.40478515625 1.18505859375 Q 10.414306640625 1.18212890625 10.42236328125 1.1737060546875 Q 10.430419921875 1.165283203125 10.4359130859375 1.1495361328125 Q 10.44140625 1.1337890625 10.44140625 1.103759765625 L 10.44140625 0.788818359375 Q 10.44140625 0.744140625 10.4359130859375 0.708984375 Q 10.430419921875 0.673828125 10.41796875 0.649658203125 Q 10.405517578125 0.62548828125 10.3846435546875 0.6126708984375 Q 10.36376953125 0.599853515625 10.332275390625 0.599853515625 Q 10.283935546875 0.599853515625 10.2623291015625 0.6302490234375 Q 10.24072265625 0.66064453125 10.24072265625 0.708984375 L 10.24072265625 1.094970703125 Q 10.24072265625 1.12646484375 10.24658203125 1.14404296875 Q 10.25244140625 1.16162109375 10.2615966796875 1.1707763671875 Q 10.270751953125 1.179931640625 10.2813720703125 1.18359375 Q 10.2919921875 1.187255859375 10.3011474609375 1.1912841796875 Q 10.310302734375 1.1953125 10.316162109375 1.2022705078125 Q 10.322021484375 1.209228515625 10.322021484375 1.225341796875 Q 10.322021484375 1.26708984375 10.3055419921875 1.2967529296875 Q 10.2890625 1.326416015625 10.2542724609375 1.3458251953125 Q 10.219482421875 1.365234375 10.1649169921875 1.3740234375 Q 10.1103515625 1.3828125 10.033447265625 1.3828125 Q 9.95947265625 1.3828125 9.9019775390625 1.3740234375 Q 9.844482421875 1.365234375 9.804931640625 1.3458251953125 Q 9.765380859375 1.326416015625 9.744873046875 1.2967529296875 Q 9.724365234375 1.26708984375 9.724365234375 1.225341796875 Q 9.724365234375 1.209228515625 9.7298583984375 1.2022705078125 Q 9.7353515625 1.1953125 9.743408203125 1.191650390625 Q 9.75146484375 1.18798828125 9.7613525390625 1.18505859375 Q 9.771240234375 1.18212890625 9.779296875 1.1737060546875 Q 9.787353515625 1.165283203125 9.7928466796875 1.1495361328125 Q 9.79833984375 1.1337890625 9.79833984375 1.103759765625 L 9.79833984375 0.788818359375 Q 9.79833984375 0.699462890625 9.7767333984375 0.650390625 Q 9.755126953125 0.601318359375 9.699462890625 0.601318359375 Q 9.677490234375 0.601318359375 9.65771484375 0.609375 Q 9.637939453125 0.617431640625 9.62255859375 0.6324462890625 Q 9.607177734375 0.6474609375 9.598388671875 0.66796875 Q 9.589599609375 0.6884765625 9.589599609375 0.712646484375 L 9.589599609375 1.100830078125 Q 9.589599609375 1.130859375 9.5958251953125 1.147705078125 Q 9.60205078125 1.16455078125 9.611572265625 1.1729736328125 Q 9.62109375 1.181396484375 9.6324462890625 1.1846923828125 Q 9.643798828125 1.18798828125 9.6533203125 1.191650390625 Q 9.662841796875 1.1953125 9.6690673828125 1.2022705078125 Q 9.67529296875 1.209228515625 9.67529296875 1.225341796875 Q 9.67529296875 1.308837890625 9.5921630859375 1.3458251953125 Q 9.509033203125 1.3828125 9.35302734375 1.3828125 Q 9.277587890625 1.3828125 9.21826171875 1.3740234375 Q 9.158935546875 1.365234375 9.1182861328125 1.3458251953125 Q 9.07763671875 1.326416015625 9.0560302734375 1.2967529296875 Q 9.034423828125 1.26708984375 9.034423828125 1.225341796875 Q 9.034423828125 1.209228515625 9.04248046875 1.2022705078125 Q 9.050537109375 1.1953125 9.062255859375 1.191650390625 Q 9.073974609375 1.18798828125 9.087890625 1.18505859375 Q 9.101806640625 1.18212890625 9.113525390625 1.1737060546875 Q 9.125244140625 1.165283203125 9.13330078125 1.1495361328125 Q 9.141357421875 1.1337890625 9.141357421875 1.103759765625 L 9.141357421875 0.712646484375 Q 9.141357421875 0.683349609375 9.13330078125 0.667236328125 Q 9.125244140625 0.651123046875 9.113525390625 0.6427001953125 Q 9.101806640625 0.63427734375 9.087890625 0.63134765625 Q 9.073974609375 0.62841796875 9.062255859375 0.624755859375 Q 9.050537109375 0.62109375 9.04248046875 0.6141357421875 Q 9.034423828125 0.607177734375 9.034423828125 0.591064453125 Q 9.034423828125 0.54931640625 9.0556640625 0.5196533203125 Q 9.076904296875 0.489990234375 9.1175537109375 0.4705810546875 Q 9.158203125 0.451171875 9.216796875 0.4423828125 Q 9.275390625 0.43359375 9.349365234375 0.43359375 Q 9.383056640625 0.43359375 9.41015625 0.4368896484375 Q 9.437255859375 0.440185546875 9.4581298828125 0.4456787109375 Q 9.47900390625 0.451171875 9.494384765625 0.4581298828125 Q 9.509765625 0.465087890625 9.520751953125 0.472412109375 Q 9.54638671875 0.489990234375 9.556640625 0.51123046875 Q 9.592529296875 0.484130859375 9.64306640625 0.462158203125 Q 9.686279296875 0.443115234375 9.74853515625 0.427734375 Q 9.810791015625 0.412353515625 9.894287109375 0.412353515625 Q 9.980712890625 0.412353515625 10.04736328125 0.4368896484375 Q 10.114013671875 0.46142578125 10.153564453125 0.50244140625 M 12.008056640625 1.401123046875 Q 11.912109375 1.401123046875 11.83154296875 1.3795166015625 Q 11.7509765625 1.35791015625 11.6854248046875 1.319091796875 Q 11.619873046875 1.2802734375 11.570068359375 1.226806640625 Q 11.520263671875 1.17333984375 11.486572265625 1.109619140625 Q 11.452880859375 1.0458984375 11.4356689453125 0.9744873046875 Q 11.41845703125 0.903076171875 11.41845703125 0.82763671875 Q 11.41845703125 0.7412109375 11.43310546875 0.6610107421875 Q 11.44775390625 0.580810546875 11.47998046875 0.510498046875 Q 11.51220703125 0.440185546875 11.5634765625 0.38232421875 Q 11.61474609375 0.324462890625 11.68798828125 0.2830810546875 Q 11.76123046875 0.24169921875 11.8575439453125 0.218994140625 Q 11.953857421875 0.1962890625 12.076904296875 0.1962890625 Q 12.158203125 0.1962890625 12.2314453125 0.21826171875 Q 12.3046875 0.240234375 12.3599853515625 0.2808837890625 Q 12.415283203125 0.321533203125 12.4478759765625 0.3797607421875 Q 12.48046875 0.43798828125 12.48046875 0.509765625 Q 12.48046875 0.5390625 12.4713134765625 0.5625 Q 12.462158203125 0.5859375 12.4456787109375 0.60205078125 Q 12.42919921875 0.6181640625 12.4068603515625 0.626953125 Q 12.384521484375 0.6357421875 12.35888671875 0.6357421875 Q 12.336181640625 0.6357421875 12.3134765625 0.62841796875 Q 12.290771484375 0.62109375 12.270263671875 0.6038818359375 Q 12.249755859375 0.586669921875 12.2332763671875 0.5592041015625 Q 12.216796875 0.53173828125 12.207275390625 0.491455078125 Q 12.194091796875 0.434326171875 12.16259765625 0.4046630859375 Q 12.131103515625 0.375 12.09521484375 0.375 Q 12.068115234375 0.375 12.0413818359375 0.391845703125 Q 12.0146484375 0.40869140625 11.9937744140625 0.4434814453125 Q 11.972900390625 0.478271484375 11.959716796875 0.53173828125 Q 11.946533203125 0.585205078125 11.946533203125 0.658447265625 Q 11.946533203125 0.755126953125 11.95751953125 0.8265380859375 Q 11.968505859375 0.89794921875 11.9879150390625 0.948486328125 Q 12.00732421875 0.9990234375 12.0333251953125 1.03125 Q 12.059326171875 1.0634765625 12.08935546875 1.081787109375 Q 12.119384765625 1.10009765625 12.151611328125 1.1070556640625 Q 12.183837890625 1.114013671875 12.216064453125 1.114013671875 Q 12.2490234375 1.114013671875 12.280517578125 1.1063232421875 Q 12.31201171875 1.0986328125 12.3380126953125 1.0872802734375 Q 12.364013671875 1.075927734375 12.3826904296875 1.0631103515625 Q 12.4013671875 1.05029296875 12.41015625 1.039306640625 Q 12.421142578125 1.024658203125 12.4339599609375 1.0177001953125 Q 12.44677734375 1.0107421875 12.457763671875 1.0107421875 Q 12.478271484375 1.0107421875 12.492919921875 1.031982421875 Q 12.507568359375 1.05322265625 12.507568359375 1.090576171875 Q 12.507568359375 1.149169921875 12.4713134765625 1.204833984375 Q 12.43505859375 1.260498046875 12.369140625 1.3040771484375 Q 12.30322265625 1.34765625 12.2113037109375 1.3743896484375 Q 12.119384765625 1.401123046875 12.008056640625 1.401123046875 M 13.116943359375 0.539794921875 Q 13.1337890625 0.521484375 13.16162109375 0.49951171875 Q 13.189453125 0.4775390625 13.23046875 0.4581298828125 Q 13.271484375 0.438720703125 13.3260498046875 0.425537109375 Q 13.380615234375 0.412353515625 13.45166015625 0.412353515625 Q 13.53369140625 0.412353515625 13.59228515625 0.4332275390625 Q 13.65087890625 0.4541015625 13.6915283203125 0.4892578125 Q 13.732177734375 0.5244140625 13.7567138671875 0.5701904296875 Q 13.78125 0.615966796875 13.79443359375 0.6661376953125 Q 13.8076171875 0.71630859375 13.81201171875 0.7672119140625 Q 13.81640625 0.818115234375 13.81640625 0.863525390625 L 13.81640625 1.094970703125 Q 13.81640625 1.12646484375 13.824462890625 1.14404296875 Q 13.83251953125 1.16162109375 13.844970703125 1.1707763671875 Q 13.857421875 1.179931640625 13.8717041015625 1.18359375 Q 13.885986328125 1.187255859375 13.8984375 1.1912841796875 Q 13.910888671875 1.1953125 13.9189453125 1.2022705078125 Q 13.927001953125 1.209228515625 13.927001953125 1.225341796875 Q 13.927001953125 1.308837890625 13.8409423828125 1.3458251953125 Q 13.7548828125 1.3828125 13.591552734375 1.3828125 Q 13.512451171875 1.3828125 13.45166015625 1.3740234375 Q 13.390869140625 1.365234375 13.34912109375 1.3458251953125 Q 13.307373046875 1.326416015625 13.2857666015625 1.2967529296875 Q 13.26416015625 1.26708984375 13.26416015625 1.225341796875 Q 13.26416015625 1.209228515625 13.272216796875 1.2022705078125 Q 13.2802734375 1.1953125 13.292724609375 1.1912841796875 Q 13.30517578125 1.187255859375 13.319091796875 1.1839599609375 Q 13.3330078125 1.1806640625 13.345458984375 1.171875 Q 13.35791015625 1.1630859375 13.365966796875 1.146240234375 Q 13.3740234375 1.12939453125 13.3740234375 1.097900390625 L 13.3740234375 0.799072265625 Q 13.3740234375 0.752197265625 13.367431640625 0.71484375 Q 13.36083984375 0.677490234375 13.3447265625 0.6522216796875 Q 13.32861328125 0.626953125 13.3011474609375 0.6134033203125 Q 13.273681640625 0.599853515625 13.232666015625 0.599853515625 Q 13.21142578125 0.599853515625 13.19384765625 0.605712890625 Q 13.17626953125 0.611572265625 13.1612548828125 0.6199951171875 Q 13.146240234375 0.62841796875 13.1348876953125 0.637939453125 Q 13.12353515625 0.6474609375 13.115478515625 0.655517578125 L 13.115478515625 1.100830078125 Q 13.115478515625 1.130859375 13.12353515625 1.147705078125 Q 13.131591796875 1.16455078125 13.1436767578125 1.1729736328125 Q 13.15576171875 1.181396484375 13.169677734375 1.1846923828125 Q 13.18359375 1.18798828125 13.1956787109375 1.191650390625 Q 13.207763671875 1.1953125 13.2158203125 1.2022705078125 Q 13.223876953125 1.209228515625 13.223876953125 1.225341796875 Q 13.223876953125 1.308837890625 13.137451171875 1.3458251953125 Q 13.051025390625 1.3828125 12.8876953125 1.3828125 Q 12.730224609375 1.3828125 12.6456298828125 1.3458251953125 Q 12.56103515625 1.308837890625 12.56103515625 1.225341796875 Q 12.56103515625 1.209228515625 12.5687255859375 1.2022705078125 Q 12.576416015625 1.1953125 12.5885009765625 1.191650390625 Q 12.6005859375 1.18798828125 12.6141357421875 1.18505859375 Q 12.627685546875 1.18212890625 12.6397705078125 1.1737060546875 Q 12.65185546875 1.165283203125 12.6595458984375 1.1495361328125 Q 12.667236328125 1.1337890625 12.667236328125 1.103759765625 L 12.667236328125 0.280517578125 Q 12.667236328125 0.25048828125 12.6595458984375 0.2347412109375 Q 12.65185546875 0.218994140625 12.6397705078125 0.2105712890625 Q 12.627685546875 0.2021484375 12.6141357421875 0.19921875 Q 12.6005859375 0.1962890625 12.5885009765625 0.192626953125 Q 12.576416015625 0.18896484375 12.5687255859375 0.1820068359375 Q 12.56103515625 0.175048828125 12.56103515625 0.158935546875 Q 12.56103515625 0.075439453125 12.6456298828125 0.0384521484375 Q 12.730224609375 0.00146484375 12.8876953125 0.00146484375 Q 12.966796875 0.00146484375 13.0125732421875 0.009521484375 Q 13.058349609375 0.017578125 13.081787109375 0.0369873046875 Q 13.105224609375 0.056396484375 13.11181640625 0.08935546875 Q 13.118408203125 0.122314453125 13.118408203125 0.172119140625 L 13.116943359375 0.539794921875 M 14.512939453125 0.599853515625 Q 14.489501953125 0.599853515625 14.468994140625 0.6104736328125 Q 14.448486328125 0.62109375 14.4334716796875 0.64306640625 Q 14.41845703125 0.6650390625 14.4100341796875 0.6990966796875 Q 14.401611328125 0.733154296875 14.401611328125 0.780029296875 L 14.63525390625 0.780029296875 Q 14.63525390625 0.728759765625 14.627197265625 0.6939697265625 Q 14.619140625 0.6591796875 14.603759765625 0.6383056640625 Q 14.58837890625 0.617431640625 14.5653076171875 0.608642578125 Q 14.542236328125 0.599853515625 14.512939453125 0.599853515625 M 14.458740234375 0.412353515625 Q 14.556884765625 0.412353515625 14.6356201171875 0.441650390625 Q 14.71435546875 0.470947265625 14.7696533203125 0.522216796875 Q 14.824951171875 0.573486328125 14.8546142578125 0.6427001953125 Q 14.88427734375 0.7119140625 14.88427734375 0.791748046875 Q 14.88427734375 0.82470703125 14.8751220703125 0.843017578125 Q 14.865966796875 0.861328125 14.84912109375 0.8701171875 Q 14.832275390625 0.87890625 14.807373046875 0.881103515625 Q 14.782470703125 0.88330078125 14.7509765625 0.88330078125 L 14.398681640625 0.88330078125 Q 14.398681640625 0.9638671875 14.4151611328125 1.0140380859375 Q 14.431640625 1.064208984375 14.4609375 1.092041015625 Q 14.490234375 1.119873046875 14.53125 1.1297607421875 Q 14.572265625 1.1396484375 14.6220703125 1.1396484375 Q 14.6484375 1.1396484375 14.6766357421875 1.134521484375 Q 14.704833984375 1.12939453125 14.7308349609375 1.121337890625 Q 14.7568359375 1.11328125 14.77880859375 1.1044921875 Q 14.80078125 1.095703125 14.8154296875 1.087646484375 Q 14.8271484375 1.0810546875 14.838134765625 1.0810546875 Q 14.85498046875 1.0810546875 14.864501953125 1.0953369140625 Q 14.8740234375 1.109619140625 14.8740234375 1.127197265625 Q 14.8740234375 1.133056640625 14.873291015625 1.13818359375 Q 14.87255859375 1.143310546875 14.870361328125 1.1484375 Q 14.84912109375 1.20263671875 14.8125 1.248779296875 Q 14.77587890625 1.294921875 14.7235107421875 1.3289794921875 Q 14.671142578125 1.363037109375 14.602294921875 1.382080078125 Q 14.533447265625 1.401123046875 14.44775390625 1.401123046875 Q 14.36572265625 1.401123046875 14.2979736328125 1.3817138671875 Q 14.230224609375 1.3623046875 14.1756591796875 1.3275146484375 Q 14.12109375 1.292724609375 14.080078125 1.245849609375 Q 14.0390625 1.198974609375 14.011962890625 1.1436767578125 Q 13.98486328125 1.08837890625 13.9713134765625 1.0279541015625 Q 13.957763671875 0.967529296875 13.957763671875 0.906005859375 Q 13.957763671875 0.84375 13.9716796875 0.7825927734375 Q 13.985595703125 0.721435546875 14.013427734375 0.66650390625 Q 14.041259765625 0.611572265625 14.0830078125 0.5650634765625 Q 14.124755859375 0.5185546875 14.180419921875 0.4844970703125 Q 14.236083984375 0.450439453125 14.3056640625 0.431396484375 Q 14.375244140625 0.412353515625 14.458740234375 0.412353515625 M 15.44384765625 0.412353515625 Q 15.478271484375 0.412353515625 15.511962890625 0.4222412109375 Q 15.545654296875 0.43212890625 15.572021484375 0.44384765625 Q 15.602783203125 0.457763671875 15.63134765625 0.475341796875 Q 15.62255859375 0.44384765625 15.6185302734375 0.4134521484375 Q 15.614501953125 0.383056640625 15.614501953125 0.355224609375 Q 15.614501953125 0.270263671875 15.6478271484375 0.2054443359375 Q 15.68115234375 0.140625 15.73681640625 0.0970458984375 Q 15.79248046875 0.053466796875 15.863525390625 0.0311279296875 Q 15.9345703125 0.0087890625 16.0107421875 0.0087890625 Q 16.067138671875 0.0087890625 16.1220703125 0.0208740234375 Q 16.177001953125 0.032958984375 16.22607421875 0.0574951171875 Q 16.275146484375 0.08203125 16.3172607421875 0.1190185546875 Q 16.359375 0.156005859375 16.3897705078125 0.2054443359375 Q 16.420166015625 0.2548828125 16.4373779296875 0.31787109375 Q 16.45458984375 0.380859375 16.45458984375 0.456298828125 L 16.45458984375 0.848876953125 Q 16.47216796875 0.848876953125 16.4820556640625 0.8477783203125 Q 16.491943359375 0.8466796875 16.4989013671875 0.8441162109375 Q 16.505859375 0.841552734375 16.51171875 0.8367919921875 Q 16.517578125 0.83203125 16.527099609375 0.82470703125 L 16.70947265625 0.68408203125 Q 16.7255859375 0.671630859375 16.7310791015625 0.661376953125 Q 16.736572265625 0.651123046875 16.736572265625 0.64306640625 Q 16.736572265625 0.6328125 16.72412109375 0.623291015625 Q 16.711669921875 0.61376953125 16.6962890625 0.603515625 Q 16.680908203125 0.59326171875 16.66845703125 0.5819091796875 Q 16.656005859375 0.570556640625 16.656005859375 0.556640625 Q 16.656005859375 0.517822265625 16.6790771484375 0.49365234375 Q 16.7021484375 0.469482421875 16.7384033203125 0.456298828125 Q 16.774658203125 0.443115234375 16.818603515625 0.4383544921875 Q 16.862548828125 0.43359375 16.903564453125 0.43359375 Q 16.9658203125 0.43359375 17.0093994140625 0.440185546875 Q 17.052978515625 0.44677734375 17.080078125 0.4617919921875 Q 17.107177734375 0.476806640625 17.1192626953125 0.500244140625 Q 17.13134765625 0.523681640625 17.13134765625 0.556640625 Q 17.13134765625 0.577880859375 17.12255859375 0.589599609375 Q 17.11376953125 0.601318359375 17.098388671875 0.608642578125 Q 17.0830078125 0.615966796875 17.0628662109375 0.62109375 Q 17.042724609375 0.626220703125 17.019287109375 0.633544921875 Q 16.995849609375 0.640869140625 16.9713134765625 0.6522216796875 Q 16.94677734375 0.66357421875 16.922607421875 0.68408203125 L 16.8134765625 0.777099609375 L 17.042724609375 1.114013671875 Q 17.0595703125 1.1396484375 17.0797119140625 1.1517333984375 Q 17.099853515625 1.163818359375 17.11962890625 1.1693115234375 Q 17.139404296875 1.1748046875 17.15771484375 1.1766357421875 Q 17.176025390625 1.178466796875 17.1903076171875 1.18212890625 Q 17.20458984375 1.185791015625 17.2130126953125 1.1942138671875 Q 17.221435546875 1.20263671875 17.221435546875 1.222412109375 Q 17.221435546875 1.265625 17.203125 1.29638671875 Q 17.184814453125 1.3271484375 17.14892578125 1.34619140625 Q 17.113037109375 1.365234375 17.0595703125 1.3740234375 Q 17.006103515625 1.3828125 16.9365234375 1.3828125 Q 16.85595703125 1.3828125 16.8076171875 1.3743896484375 Q 16.75927734375 1.365966796875 16.732177734375 1.3509521484375 Q 16.705078125 1.3359375 16.6937255859375 1.3154296875 Q 16.682373046875 1.294921875 16.6754150390625 1.2696533203125 Q 16.66845703125 1.244384765625 16.6611328125 1.2161865234375 Q 16.65380859375 1.18798828125 16.634765625 1.157958984375 L 16.527099609375 0.988037109375 Q 16.52490234375 0.985107421875 16.521240234375 0.9814453125 Q 16.517578125 0.977783203125 16.5098876953125 0.9744873046875 Q 16.502197265625 0.97119140625 16.489013671875 0.9693603515625 Q 16.475830078125 0.967529296875 16.45458984375 0.967529296875 L 16.45458984375 1.100830078125 Q 16.45458984375 1.130859375 16.462646484375 1.147705078125 Q 16.470703125 1.16455078125 16.4827880859375 1.1729736328125 Q 16.494873046875 1.181396484375 16.5087890625 1.1846923828125 Q 16.522705078125 1.18798828125 16.5347900390625 1.191650390625 Q 16.546875 1.1953125 16.554931640625 1.2022705078125 Q 16.56298828125 1.209228515625 16.56298828125 1.225341796875 Q 16.56298828125 1.308837890625 16.4765625 1.3458251953125 Q 16.39013671875 1.3828125 16.226806640625 1.3828125 Q 16.147705078125 1.3828125 16.0869140625 1.3740234375 Q 16.026123046875 1.365234375 15.984375 1.3458251953125 Q 15.942626953125 1.326416015625 15.9210205078125 1.2967529296875 Q 15.8994140625 1.26708984375 15.8994140625 1.225341796875 Q 15.8994140625 1.209228515625 15.907470703125 1.2022705078125 Q 15.91552734375 1.1953125 15.92724609375 1.191650390625 Q 15.93896484375 1.18798828125 15.952880859375 1.18505859375 Q 15.966796875 1.18212890625 15.978515625 1.1737060546875 Q 15.990234375 1.165283203125 15.998291015625 1.1495361328125 Q 16.00634765625 1.1337890625 16.00634765625 1.103759765625 L 16.00634765625 0.5185546875 Q 16.00634765625 0.473876953125 15.9986572265625 0.441650390625 Q 15.990966796875 0.409423828125 15.977783203125 0.388916015625 Q 15.964599609375 0.368408203125 15.94775390625 0.35888671875 Q 15.930908203125 0.349365234375 15.913330078125 0.349365234375 Q 15.8935546875 0.349365234375 15.873779296875 0.3599853515625 Q 15.85400390625 0.37060546875 15.838623046875 0.390380859375 Q 15.8232421875 0.41015625 15.8133544921875 0.4376220703125 Q 15.803466796875 0.465087890625 15.803466796875 0.498046875 Q 15.803466796875 0.52294921875 15.8111572265625 0.5489501953125 Q 15.81884765625 0.574951171875 15.82763671875 0.60205078125 Q 15.83642578125 0.629150390625 15.8441162109375 0.6573486328125 Q 15.851806640625 0.685546875 15.851806640625 0.714111328125 Q 15.851806640625 0.73974609375 15.84375 0.759521484375 Q 15.835693359375 0.779296875 15.8221435546875 0.793212890625 Q 15.80859375 0.80712890625 15.78955078125 0.814453125 Q 15.7705078125 0.82177734375 15.74853515625 0.82177734375 Q 15.709716796875 0.82177734375 15.6866455078125 0.8052978515625 Q 15.66357421875 0.788818359375 15.64892578125 0.7642822265625 Q 15.63427734375 0.73974609375 15.6240234375 0.7108154296875 Q 15.61376953125 0.681884765625 15.599853515625 0.6573486328125 Q 15.5859375 0.6328125 15.564697265625 0.6163330078125 Q 15.54345703125 0.599853515625 15.5068359375 0.599853515625 Q 15.475341796875 0.599853515625 15.4522705078125 0.613037109375 Q 15.42919921875 0.626220703125 15.413818359375 0.6514892578125 Q 15.3984375 0.6767578125 15.39111328125 0.7130126953125 Q 15.3837890625 0.749267578125 15.3837890625 0.794677734375 Q 15.3837890625 0.970458984375 15.4368896484375 1.0550537109375 Q 15.489990234375 1.1396484375 15.607177734375 1.1396484375 Q 15.640869140625 1.1396484375 15.676025390625 1.1304931640625 Q 15.711181640625 1.121337890625 15.7412109375 1.1103515625 Q 15.771240234375 1.099365234375 15.793212890625 1.0902099609375 Q 15.815185546875 1.0810546875 15.8232421875 1.0810546875 Q 15.840087890625 1.0810546875 15.849609375 1.0953369140625 Q 15.859130859375 1.109619140625 15.859130859375 1.1279296875 Q 15.859130859375 1.1337890625 15.8587646484375 1.138916015625 Q 15.8583984375 1.14404296875 15.856201171875 1.149169921875 Q 15.8349609375 1.203369140625 15.796142578125 1.2491455078125 Q 15.75732421875 1.294921875 15.7034912109375 1.3289794921875 Q 15.649658203125 1.363037109375 15.58154296875 1.382080078125 Q 15.513427734375 1.401123046875 15.43359375 1.401123046875 Q 15.3515625 1.401123046875 15.283447265625 1.3817138671875 Q 15.21533203125 1.3623046875 15.1607666015625 1.3275146484375 Q 15.106201171875 1.292724609375 15.0655517578125 1.245849609375 Q 15.02490234375 1.198974609375 14.9974365234375 1.1436767578125 Q 14.969970703125 1.08837890625 14.9564208984375 1.0279541015625 Q 14.94287109375 0.967529296875 14.94287109375 0.906005859375 Q 14.94287109375 0.84375 14.956787109375 0.7825927734375 Q 14.970703125 0.721435546875 14.99853515625 0.66650390625 Q 15.0263671875 0.611572265625 15.068115234375 0.5650634765625 Q 15.10986328125 0.5185546875 15.16552734375 0.4844970703125 Q 15.22119140625 0.450439453125 15.290771484375 0.431396484375 Q 15.3603515625 0.412353515625 15.44384765625 0.412353515625 M 17.77587890625 0.599853515625 Q 17.75244140625 0.599853515625 17.73193359375 0.6104736328125 Q 17.71142578125 0.62109375 17.6964111328125 0.64306640625 Q 17.681396484375 0.6650390625 17.6729736328125 0.6990966796875 Q 17.66455078125 0.733154296875 17.66455078125 0.780029296875 L 17.898193359375 0.780029296875 Q 17.898193359375 0.728759765625 17.89013671875 0.6939697265625 Q 17.882080078125 0.6591796875 17.86669921875 0.6383056640625 Q 17.851318359375 0.617431640625 17.8282470703125 0.608642578125 Q 17.80517578125 0.599853515625 17.77587890625 0.599853515625 M 17.7216796875 0.412353515625 Q 17.81982421875 0.412353515625 17.8985595703125 0.441650390625 Q 17.977294921875 0.470947265625 18.0325927734375 0.522216796875 Q 18.087890625 0.573486328125 18.1175537109375 0.6427001953125 Q 18.147216796875 0.7119140625 18.147216796875 0.791748046875 Q 18.147216796875 0.82470703125 18.1380615234375 0.843017578125 Q 18.12890625 0.861328125 18.112060546875 0.8701171875 Q 18.09521484375 0.87890625 18.0703125 0.881103515625 Q 18.04541015625 0.88330078125 18.013916015625 0.88330078125 L 17.66162109375 0.88330078125 Q 17.66162109375 0.9638671875 17.6781005859375 1.0140380859375 Q 17.694580078125 1.064208984375 17.723876953125 1.092041015625 Q 17.753173828125 1.119873046875 17.794189453125 1.1297607421875 Q 17.835205078125 1.1396484375 17.885009765625 1.1396484375 Q 17.911376953125 1.1396484375 17.9395751953125 1.134521484375 Q 17.9677734375 1.12939453125 17.9937744140625 1.121337890625 Q 18.019775390625 1.11328125 18.041748046875 1.1044921875 Q 18.063720703125 1.095703125 18.078369140625 1.087646484375 Q 18.090087890625 1.0810546875 18.10107421875 1.0810546875 Q 18.117919921875 1.0810546875 18.12744140625 1.0953369140625 Q 18.136962890625 1.109619140625 18.136962890625 1.127197265625 Q 18.136962890625 1.133056640625 18.13623046875 1.13818359375 Q 18.135498046875 1.143310546875 18.13330078125 1.1484375 Q 18.112060546875 1.20263671875 18.075439453125 1.248779296875 Q 18.038818359375 1.294921875 17.9864501953125 1.3289794921875 Q 17.93408203125 1.363037109375 17.865234375 1.382080078125 Q 17.79638671875 1.401123046875 17.710693359375 1.401123046875 Q 17.628662109375 1.401123046875 17.5609130859375 1.3817138671875 Q 17.4931640625 1.3623046875 17.4385986328125 1.3275146484375 Q 17.384033203125 1.292724609375 17.343017578125 1.245849609375 Q 17.302001953125 1.198974609375 17.27490234375 1.1436767578125 Q 17.247802734375 1.08837890625 17.2342529296875 1.0279541015625 Q 17.220703125 0.967529296875 17.220703125 0.906005859375 Q 17.220703125 0.84375 17.234619140625 0.7825927734375 Q 17.24853515625 0.721435546875 17.2763671875 0.66650390625 Q 17.30419921875 0.611572265625 17.345947265625 0.5650634765625 Q 17.3876953125 0.5185546875 17.443359375 0.4844970703125 Q 17.4990234375 0.450439453125 17.568603515625 0.431396484375 Q 17.63818359375 0.412353515625 17.7216796875 0.412353515625 M 18.744873046875 1.100830078125 Q 18.744873046875 1.130859375 18.7529296875 1.147705078125 Q 18.760986328125 1.16455078125 18.7730712890625 1.1729736328125 Q 18.78515625 1.181396484375 18.799072265625 1.1846923828125 Q 18.81298828125 1.18798828125 18.8250732421875 1.191650390625 Q 18.837158203125 1.1953125 18.84521484375 1.2022705078125 Q 18.853271484375 1.209228515625 18.853271484375 1.225341796875 Q 18.853271484375 1.308837890625 18.766845703125 1.3458251953125 Q 18.680419921875 1.3828125 18.51708984375 1.3828125 Q 18.43798828125 1.3828125 18.377197265625 1.3740234375 Q 18.31640625 1.365234375 18.274658203125 1.3458251953125 Q 18.23291015625 1.326416015625 18.2113037109375 1.2967529296875 Q 18.189697265625 1.26708984375 18.189697265625 1.225341796875 Q 18.189697265625 1.209228515625 18.19775390625 1.2022705078125 Q 18.205810546875 1.1953125 18.217529296875 1.191650390625 Q 18.229248046875 1.18798828125 18.2431640625 1.18505859375 Q 18.257080078125 1.18212890625 18.268798828125 1.1737060546875 Q 18.280517578125 1.165283203125 18.28857421875 1.1495361328125 Q 18.296630859375 1.1337890625 18.296630859375 1.103759765625 L 18.296630859375 0.712646484375 Q 18.296630859375 0.683349609375 18.28857421875 0.667236328125 Q 18.280517578125 0.651123046875 18.268798828125 0.6427001953125 Q 18.257080078125 0.63427734375 18.2431640625 0.63134765625 Q 18.229248046875 0.62841796875 18.217529296875 0.624755859375 Q 18.205810546875 0.62109375 18.19775390625 0.6141357421875 Q 18.189697265625 0.607177734375 18.189697265625 0.591064453125 Q 18.189697265625 0.54931640625 18.2113037109375 0.5196533203125 Q 18.23291015625 0.489990234375 18.274658203125 0.4705810546875 Q 18.31640625 0.451171875 18.377197265625 0.4423828125 Q 18.43798828125 0.43359375 18.51708984375 0.43359375 Q 18.589599609375 0.43359375 18.6331787109375 0.4478759765625 Q 18.6767578125 0.462158203125 18.70166015625 0.489990234375 Q 18.72216796875 0.476806640625 18.744140625 0.4647216796875 Q 18.76611328125 0.45263671875 18.791015625 0.4434814453125 Q 18.81591796875 0.434326171875 18.84521484375 0.42919921875 Q 18.87451171875 0.424072265625 18.90966796875 0.424072265625 Q 18.95361328125 0.424072265625 18.9942626953125 0.4332275390625 Q 19.034912109375 0.4423828125 19.06640625 0.4632568359375 Q 19.097900390625 0.484130859375 19.1165771484375 0.5174560546875 Q 19.13525390625 0.55078125 19.13525390625 0.599853515625 Q 19.13525390625 0.632080078125 19.124267578125 0.662841796875 Q 19.11328125 0.693603515625 19.0916748046875 0.7174072265625 Q 19.070068359375 0.7412109375 19.0374755859375 0.755859375 Q 19.0048828125 0.7705078125 18.96240234375 0.7705078125 Q 18.919921875 0.7705078125 18.895751953125 0.758056640625 Q 18.87158203125 0.74560546875 18.8583984375 0.727294921875 Q 18.84521484375 0.708984375 18.8389892578125 0.6873779296875 Q 18.832763671875 0.665771484375 18.8258056640625 0.6474609375 Q 18.81884765625 0.629150390625 18.8074951171875 0.61669921875 Q 18.796142578125 0.604248046875 18.7734375 0.604248046875 Q 18.750732421875 0.604248046875 18.743408203125 0.6097412109375 Q 18.736083984375 0.615234375 18.736083984375 0.62548828125 Q 18.736083984375 0.638671875 18.7412109375 0.6591796875 Q 18.746337890625 0.6796875 18.746337890625 0.708984375 L 18.744873046875 1.100830078125" fill="#382d5e" fill-rule="nonzero"></path></g><g></g></g><defs><clipPath id="SvgjsClipPath2316"><path d=" M -4.510224556304465 -0.7588997353602878 h 4.110224556304464 v 2.9006119707205755 h -4.110224556304464 Z"></path></clipPath><clipPath id="SvgjsClipPath23119bf60ac6-50f1-473c-ba55-478abc4d1be2"><path d=" M -4.510224556304465 -0.7588997353602878 L -0.40000000000000036 -0.7588997353602878 L -0.40000000000000036 2.1417122353602878 L -4.510224556304465 2.1417122353602878 Z"></path></clipPath></defs></svg>