<svg id="Layer_1" data-name="Layer 1" xmlns="http://www.w3.org/2000/svg" viewBox="0 0 7.136 7.136"><title>tf0.147705078125</title><path d="M69.94-93.391a.629.629,0,0,0,.77.444.63.63,0,0,0,.445-.77.629.629,0,0,0-.77-.444A.628.628,0,0,0,69.94-93.391Z" transform="translate(-69.919 97.91)" fill="#1a76ad" fill-rule="evenodd"></path><path d="M72.246-94.009a.292.292,0,0,0,.356.2.292.292,0,0,0,.2-.356.291.291,0,0,0-.355-.2A.292.292,0,0,0,72.246-94.009Z" transform="translate(-69.919 97.91)" fill="#1a76ad" fill-rule="evenodd"></path><path d="M71.19-94.342a.459.459,0,0,0,.459.46.459.459,0,0,0,.459-.46.459.459,0,0,0-.459-.459A.459.459,0,0,0,71.19-94.342Z" transform="translate(-69.919 97.91)" fill="#1a76ad" fill-rule="evenodd"></path><path d="M74.437-90.795a.629.629,0,0,0,.444-.77.628.628,0,0,0-.77-.445.629.629,0,0,0-.444.77A.63.63,0,0,0,74.437-90.795Z" transform="translate(-69.919 97.91)" fill="#095791" fill-rule="evenodd"></path><path d="M73.819-93.1a.29.29,0,0,0,.2-.355.29.29,0,0,0-.355-.205.291.291,0,0,0-.206.355A.29.29,0,0,0,73.819-93.1Z" transform="translate(-69.919 97.91)" fill="#095791" fill-rule="evenodd"></path><path d="M73.487-92.045a.46.46,0,0,0,.459-.459.46.46,0,0,0-.459-.46.46.46,0,0,0-.46.46A.46.46,0,0,0,73.487-92.045Z" transform="translate(-69.919 97.91)" fill="#095791" fill-rule="evenodd"></path><path d="M71.651-91.162a.629.629,0,0,0,.858-.23.628.628,0,0,0-.23-.859.628.628,0,0,0-.858.23A.628.628,0,0,0,71.651-91.162Z" transform="translate(-69.919 97.91)" fill="#1a76ad" fill-rule="evenodd"></path><path d="M72.845-93.23a.29.29,0,0,0,.4-.106.29.29,0,0,0-.106-.4.288.288,0,0,0-.4.106A.289.289,0,0,0,72.845-93.23Z" transform="translate(-69.919 97.91)" fill="#095791" fill-rule="evenodd"></path><path d="M71.863-92.718a.458.458,0,0,0,.649,0,.459.459,0,0,0,0-.649.458.458,0,0,0-.649,0A.458.458,0,0,0,71.863-92.718Z" transform="translate(-69.919 97.91)" fill="#1a76ad" fill-rule="evenodd"></path><path d="M76.666-92.506a.63.63,0,0,0-.23-.859.63.63,0,0,0-.859.23.63.63,0,0,0,.23.859A.628.628,0,0,0,76.666-92.506Z" transform="translate(-69.919 97.91)" fill="#095791" fill-rule="evenodd"></path><path d="M74.6-93.7a.29.29,0,0,0-.106-.4.29.29,0,0,0-.4.106.291.291,0,0,0,.106.4A.291.291,0,0,0,74.6-93.7Z" transform="translate(-69.919 97.91)" fill="#33a4d8" fill-rule="evenodd"></path><path d="M75.111-92.718a.459.459,0,0,0,0-.649.459.459,0,0,0-.65,0,.458.458,0,0,0,0,.649A.459.459,0,0,0,75.111-92.718Z" transform="translate(-69.919 97.91)" fill="#095791" fill-rule="evenodd"></path><path d="M75.322-97.521a.629.629,0,0,0-.859.23.629.629,0,0,0,.231.859.628.628,0,0,0,.858-.231A.627.627,0,0,0,75.322-97.521Z" transform="translate(-69.919 97.91)" fill="#33a4d8" fill-rule="evenodd"></path><path d="M74.128-95.454a.291.291,0,0,0-.4.107.29.29,0,0,0,.106.4.291.291,0,0,0,.4-.106A.291.291,0,0,0,74.128-95.454Z" transform="translate(-69.919 97.91)" fill="#33a4d8" fill-rule="evenodd"></path><path d="M75.111-95.965a.459.459,0,0,0-.65,0,.458.458,0,0,0,0,.649.461.461,0,0,0,.65,0A.459.459,0,0,0,75.111-95.965Z" transform="translate(-69.919 97.91)" fill="#33a4d8" fill-rule="evenodd"></path><path d="M77.033-95.292a.629.629,0,0,0-.77-.444.627.627,0,0,0-.445.769.629.629,0,0,0,.77.445A.629.629,0,0,0,77.033-95.292Z" transform="translate(-69.919 97.91)" fill="#33a4d8" fill-rule="evenodd"></path><path d="M74.726-94.674a.289.289,0,0,0-.355-.2.29.29,0,0,0-.2.355.289.289,0,0,0,.355.2A.289.289,0,0,0,74.726-94.674Z" transform="translate(-69.919 97.91)" fill="#33a4d8" fill-rule="evenodd"></path><path d="M75.783-94.342a.46.46,0,0,0-.459-.459.46.46,0,0,0-.46.459.46.46,0,0,0,.46.46A.46.46,0,0,0,75.783-94.342Z" transform="translate(-69.919 97.91)" fill="#33a4d8" fill-rule="evenodd"></path><path d="M72.536-97.888a.629.629,0,0,0-.444.77.628.628,0,0,0,.77.444.627.627,0,0,0,.444-.769A.629.629,0,0,0,72.536-97.888Z" transform="translate(-69.919 97.91)" fill="#33a4d8" fill-rule="evenodd"></path><path d="M73.154-95.582a.292.292,0,0,0-.2.356.291.291,0,0,0,.355.2.291.291,0,0,0,.206-.355A.292.292,0,0,0,73.154-95.582Z" transform="translate(-69.919 97.91)" fill="#33a4d8" fill-rule="evenodd"></path><path d="M73.487-96.638a.459.459,0,0,0-.46.459.459.459,0,0,0,.46.459.459.459,0,0,0,.459-.459A.459.459,0,0,0,73.487-96.638Z" transform="translate(-69.919 97.91)" fill="#33a4d8" fill-rule="evenodd"></path><path d="M70.307-96.177a.627.627,0,0,0,.23.858.628.628,0,0,0,.859-.23.629.629,0,0,0-.23-.858A.628.628,0,0,0,70.307-96.177Z" transform="translate(-69.919 97.91)" fill="#33a4d8" fill-rule="evenodd"></path><path d="M72.375-94.984a.291.291,0,0,0,.106.4.29.29,0,0,0,.4-.106.291.291,0,0,0-.106-.4A.29.29,0,0,0,72.375-94.984Z" transform="translate(-69.919 97.91)" fill="#1a76ad" fill-rule="evenodd"></path><path d="M71.863-95.965a.458.458,0,0,0,0,.649.459.459,0,0,0,.649,0,.459.459,0,0,0,0-.649A.458.458,0,0,0,71.863-95.965Z" transform="translate(-69.919 97.91)" fill="#33a4d8" fill-rule="evenodd"></path></svg>