<svg version="1.1" id="Layer_1" xmlns="http://www.w3.org/2000/svg" xmlns:xlink="http://www.w3.org/1999/xlink" x="0px" y="0px" viewBox="115.5 90.57167083278453 586.8280366992947 414.12832916721544" xml:space="preserve" enable-background="new 0 0 841.9 595.3">

<g>
	<path class="st0" d="M701.8,282.9C693.6,169,594.4,83,480.5,91.1c-65.6,4.7-125.7,40.8-160.8,96.6c-4.7,7.6-2.7,17.5,4.7,22.5
		l54.1,36.9c3.8,2.6,8.5,3.5,12.9,2.5c4.5-1,8.3-3.8,10.7-7.7c18.2-30.6,50.3-50.4,85.9-53c59.9-4.3,112.1,41,116.4,100.9
		c2.1,29-7.3,57.1-26.3,79.1c-19,22-45.5,35.2-74.5,37.3c-43.1,3.1-84-19.6-104.1-57.9c-4.1-7.8-13.7-11-21.7-7.3l-59.4,27.6
		c-4.1,1.9-7.2,5.4-8.7,9.6c-1.5,4.3-1.2,8.9,0.9,12.9C346,461.4,417.4,504.7,495,504.7c4.9,0,9.9-0.2,14.9-0.5
		c55.2-3.9,105.5-29.1,141.7-70.9C687.9,391.5,705.7,338.1,701.8,282.9z M626.6,411.5c-30.4,35.1-72.7,56.2-119,59.6
		c-64.3,4.6-124.9-26.4-159-79.9l29.6-13.8c26.4,38.8,70.4,62.2,117.5,62.2c3.4,0,6.8-0.1,10.2-0.4c37.9-2.7,72.4-20,97.3-48.7
		c24.9-28.7,37.1-65.3,34.4-103.2c-5.6-78.2-73.7-137.2-151.9-131.6c-40.4,2.9-77.5,22.9-102.1,54.5l-26.6-18.2
		c30.1-39.4,76.1-64.5,125.9-68c95.6-6.8,179,65.4,185.8,161C672,331.6,657,376.4,626.6,411.5z" fill="#059ece"></path>
	<path class="st0" d="M447.3,304.6h49.5c4.5,0,8.2-3.7,8.2-8.2v-5c0-4.5-3.7-8.2-8.2-8.2h-48H275.4l14,11.6l-11.8,9.8H447.3z" fill="#059ece"></path>
</g>
<polygon class="st1" points="198.3,294.8 115.5,350.2 222.7,350.2 277.6,304.6 289.4,294.8 " fill="#d14609"></polygon>
<g>
	<path class="st2" d="M493.1,250.7c-20.7,0-38.3,13.6-44.2,32.4h48c4.5,0,8.2,3.7,8.2,8.2v5c0,4.5-3.7,8.2-8.2,8.2h-49.5
		c3.6,22.1,22.7,39,45.8,39c25.6,0,46.4-20.8,46.4-46.4C539.5,271.5,518.7,250.7,493.1,250.7z" fill="#e85d18"></path>
	<polygon class="st2" points="222.7,239.4 115.5,239.4 198.3,294.8 289.4,294.8 275.4,283.1 	" fill="#e85d18"></polygon>
</g>
<defs></defs></svg>